G04 #@! TF.GenerationSoftware,KiCad,Pcbnew,(5.1.4)-1*
G04 #@! TF.CreationDate,2019-10-10T13:05:57-05:00*
G04 #@! TF.ProjectId,NC7WZ17 Breakout,4e433757-5a31-4372-9042-7265616b6f75,rev?*
G04 #@! TF.SameCoordinates,Original*
G04 #@! TF.FileFunction,Legend,Bot*
G04 #@! TF.FilePolarity,Positive*
%FSLAX46Y46*%
G04 Gerber Fmt 4.6, Leading zero omitted, Abs format (unit mm)*
G04 Created by KiCad (PCBNEW (5.1.4)-1) date 2019-10-10 13:05:57*
%MOMM*%
%LPD*%
G04 APERTURE LIST*
%ADD10C,0.150000*%
G04 APERTURE END LIST*
D10*
X109878166Y-89691333D02*
X109778166Y-89724666D01*
X109611500Y-89724666D01*
X109544833Y-89691333D01*
X109511500Y-89658000D01*
X109478166Y-89591333D01*
X109478166Y-89524666D01*
X109511500Y-89458000D01*
X109544833Y-89424666D01*
X109611500Y-89391333D01*
X109744833Y-89358000D01*
X109811500Y-89324666D01*
X109844833Y-89291333D01*
X109878166Y-89224666D01*
X109878166Y-89158000D01*
X109844833Y-89091333D01*
X109811500Y-89058000D01*
X109744833Y-89024666D01*
X109578166Y-89024666D01*
X109478166Y-89058000D01*
X108878166Y-89691333D02*
X108944833Y-89724666D01*
X109078166Y-89724666D01*
X109144833Y-89691333D01*
X109178166Y-89658000D01*
X109211500Y-89591333D01*
X109211500Y-89391333D01*
X109178166Y-89324666D01*
X109144833Y-89291333D01*
X109078166Y-89258000D01*
X108944833Y-89258000D01*
X108878166Y-89291333D01*
X108578166Y-89724666D02*
X108578166Y-89024666D01*
X108278166Y-89724666D02*
X108278166Y-89358000D01*
X108311500Y-89291333D01*
X108378166Y-89258000D01*
X108478166Y-89258000D01*
X108544833Y-89291333D01*
X108578166Y-89324666D01*
X107944833Y-89658000D02*
X107911500Y-89691333D01*
X107944833Y-89724666D01*
X107978166Y-89691333D01*
X107944833Y-89658000D01*
X107944833Y-89724666D01*
X106644833Y-89024666D02*
X106244833Y-89024666D01*
X106444833Y-89724666D02*
X106444833Y-89024666D01*
X106011500Y-89724666D02*
X106011500Y-89258000D01*
X106011500Y-89391333D02*
X105978166Y-89324666D01*
X105944833Y-89291333D01*
X105878166Y-89258000D01*
X105811500Y-89258000D01*
X105578166Y-89724666D02*
X105578166Y-89258000D01*
X105578166Y-89024666D02*
X105611500Y-89058000D01*
X105578166Y-89091333D01*
X105544833Y-89058000D01*
X105578166Y-89024666D01*
X105578166Y-89091333D01*
X104944833Y-89258000D02*
X104944833Y-89824666D01*
X104978166Y-89891333D01*
X105011500Y-89924666D01*
X105078166Y-89958000D01*
X105178166Y-89958000D01*
X105244833Y-89924666D01*
X104944833Y-89691333D02*
X105011500Y-89724666D01*
X105144833Y-89724666D01*
X105211500Y-89691333D01*
X105244833Y-89658000D01*
X105278166Y-89591333D01*
X105278166Y-89391333D01*
X105244833Y-89324666D01*
X105211500Y-89291333D01*
X105144833Y-89258000D01*
X105011500Y-89258000D01*
X104944833Y-89291333D01*
X104311500Y-89258000D02*
X104311500Y-89824666D01*
X104344833Y-89891333D01*
X104378166Y-89924666D01*
X104444833Y-89958000D01*
X104544833Y-89958000D01*
X104611500Y-89924666D01*
X104311500Y-89691333D02*
X104378166Y-89724666D01*
X104511500Y-89724666D01*
X104578166Y-89691333D01*
X104611500Y-89658000D01*
X104644833Y-89591333D01*
X104644833Y-89391333D01*
X104611500Y-89324666D01*
X104578166Y-89291333D01*
X104511500Y-89258000D01*
X104378166Y-89258000D01*
X104311500Y-89291333D01*
X103711500Y-89691333D02*
X103778166Y-89724666D01*
X103911500Y-89724666D01*
X103978166Y-89691333D01*
X104011500Y-89624666D01*
X104011500Y-89358000D01*
X103978166Y-89291333D01*
X103911500Y-89258000D01*
X103778166Y-89258000D01*
X103711500Y-89291333D01*
X103678166Y-89358000D01*
X103678166Y-89424666D01*
X104011500Y-89491333D01*
X103378166Y-89724666D02*
X103378166Y-89258000D01*
X103378166Y-89391333D02*
X103344833Y-89324666D01*
X103311500Y-89291333D01*
X103244833Y-89258000D01*
X103178166Y-89258000D01*
X108589166Y-96424000D02*
X108655833Y-96390666D01*
X108755833Y-96390666D01*
X108855833Y-96424000D01*
X108922500Y-96490666D01*
X108955833Y-96557333D01*
X108989166Y-96690666D01*
X108989166Y-96790666D01*
X108955833Y-96924000D01*
X108922500Y-96990666D01*
X108855833Y-97057333D01*
X108755833Y-97090666D01*
X108689166Y-97090666D01*
X108589166Y-97057333D01*
X108555833Y-97024000D01*
X108555833Y-96790666D01*
X108689166Y-96790666D01*
X108255833Y-97090666D02*
X108255833Y-96390666D01*
X107855833Y-97090666D01*
X107855833Y-96390666D01*
X107522500Y-97090666D02*
X107522500Y-96390666D01*
X107355833Y-96390666D01*
X107255833Y-96424000D01*
X107189166Y-96490666D01*
X107155833Y-96557333D01*
X107122500Y-96690666D01*
X107122500Y-96790666D01*
X107155833Y-96924000D01*
X107189166Y-96990666D01*
X107255833Y-97057333D01*
X107355833Y-97090666D01*
X107522500Y-97090666D01*
X110098833Y-94296666D02*
X110098833Y-93596666D01*
X109765500Y-94296666D02*
X109765500Y-93596666D01*
X109365500Y-94296666D01*
X109365500Y-93596666D01*
X109065500Y-93663333D02*
X109032166Y-93630000D01*
X108965500Y-93596666D01*
X108798833Y-93596666D01*
X108732166Y-93630000D01*
X108698833Y-93663333D01*
X108665500Y-93730000D01*
X108665500Y-93796666D01*
X108698833Y-93896666D01*
X109098833Y-94296666D01*
X108665500Y-94296666D01*
X107698833Y-93596666D02*
X107565500Y-93596666D01*
X107498833Y-93630000D01*
X107432166Y-93696666D01*
X107398833Y-93830000D01*
X107398833Y-94063333D01*
X107432166Y-94196666D01*
X107498833Y-94263333D01*
X107565500Y-94296666D01*
X107698833Y-94296666D01*
X107765500Y-94263333D01*
X107832166Y-94196666D01*
X107865500Y-94063333D01*
X107865500Y-93830000D01*
X107832166Y-93696666D01*
X107765500Y-93630000D01*
X107698833Y-93596666D01*
X107098833Y-93596666D02*
X107098833Y-94163333D01*
X107065500Y-94230000D01*
X107032166Y-94263333D01*
X106965500Y-94296666D01*
X106832166Y-94296666D01*
X106765500Y-94263333D01*
X106732166Y-94230000D01*
X106698833Y-94163333D01*
X106698833Y-93596666D01*
X106465500Y-93596666D02*
X106065500Y-93596666D01*
X106265500Y-94296666D02*
X106265500Y-93596666D01*
X110098833Y-91756666D02*
X110098833Y-91056666D01*
X109765500Y-91756666D02*
X109765500Y-91056666D01*
X109365500Y-91756666D01*
X109365500Y-91056666D01*
X108665500Y-91756666D02*
X109065500Y-91756666D01*
X108865500Y-91756666D02*
X108865500Y-91056666D01*
X108932166Y-91156666D01*
X108998833Y-91223333D01*
X109065500Y-91256666D01*
X107698833Y-91056666D02*
X107565500Y-91056666D01*
X107498833Y-91090000D01*
X107432166Y-91156666D01*
X107398833Y-91290000D01*
X107398833Y-91523333D01*
X107432166Y-91656666D01*
X107498833Y-91723333D01*
X107565500Y-91756666D01*
X107698833Y-91756666D01*
X107765500Y-91723333D01*
X107832166Y-91656666D01*
X107865500Y-91523333D01*
X107865500Y-91290000D01*
X107832166Y-91156666D01*
X107765500Y-91090000D01*
X107698833Y-91056666D01*
X107098833Y-91056666D02*
X107098833Y-91623333D01*
X107065500Y-91690000D01*
X107032166Y-91723333D01*
X106965500Y-91756666D01*
X106832166Y-91756666D01*
X106765500Y-91723333D01*
X106732166Y-91690000D01*
X106698833Y-91623333D01*
X106698833Y-91056666D01*
X106465500Y-91056666D02*
X106065500Y-91056666D01*
X106265500Y-91756666D02*
X106265500Y-91056666D01*
X109717833Y-88708666D02*
X109717833Y-88008666D01*
X109317833Y-88708666D01*
X109317833Y-88008666D01*
X108584500Y-88642000D02*
X108617833Y-88675333D01*
X108717833Y-88708666D01*
X108784500Y-88708666D01*
X108884500Y-88675333D01*
X108951166Y-88608666D01*
X108984500Y-88542000D01*
X109017833Y-88408666D01*
X109017833Y-88308666D01*
X108984500Y-88175333D01*
X108951166Y-88108666D01*
X108884500Y-88042000D01*
X108784500Y-88008666D01*
X108717833Y-88008666D01*
X108617833Y-88042000D01*
X108584500Y-88075333D01*
X108351166Y-88008666D02*
X107884500Y-88008666D01*
X108184500Y-88708666D01*
X107684500Y-88008666D02*
X107517833Y-88708666D01*
X107384500Y-88208666D01*
X107251166Y-88708666D01*
X107084500Y-88008666D01*
X106884500Y-88008666D02*
X106417833Y-88008666D01*
X106884500Y-88708666D01*
X106417833Y-88708666D01*
X105784500Y-88708666D02*
X106184500Y-88708666D01*
X105984500Y-88708666D02*
X105984500Y-88008666D01*
X106051166Y-88108666D01*
X106117833Y-88175333D01*
X106184500Y-88208666D01*
X105551166Y-88008666D02*
X105084500Y-88008666D01*
X105384500Y-88708666D01*
M02*
