G04 #@! TF.GenerationSoftware,KiCad,Pcbnew,(5.1.4)-1*
G04 #@! TF.CreationDate,2019-10-10T13:05:57-05:00*
G04 #@! TF.ProjectId,NC7WZ17 Breakout,4e433757-5a31-4372-9042-7265616b6f75,rev?*
G04 #@! TF.SameCoordinates,Original*
G04 #@! TF.FileFunction,Copper,L2,Bot*
G04 #@! TF.FilePolarity,Positive*
%FSLAX46Y46*%
G04 Gerber Fmt 4.6, Leading zero omitted, Abs format (unit mm)*
G04 Created by KiCad (PCBNEW (5.1.4)-1) date 2019-10-10 13:05:57*
%MOMM*%
%LPD*%
G04 APERTURE LIST*
%ADD10O,1.700000X1.700000*%
%ADD11R,1.700000X1.700000*%
%ADD12C,0.800000*%
%ADD13C,0.254000*%
G04 APERTURE END LIST*
D10*
X111506000Y-96520000D03*
X111506000Y-93980000D03*
X111506000Y-91440000D03*
D11*
X111506000Y-88900000D03*
D10*
X104866400Y-96520000D03*
X104866400Y-93980000D03*
D11*
X104866400Y-91440000D03*
D12*
X107188000Y-89408000D03*
D13*
G36*
X110066498Y-87805820D02*
G01*
X110030188Y-87925518D01*
X110017928Y-88050000D01*
X110017928Y-89750000D01*
X110030188Y-89874482D01*
X110066498Y-89994180D01*
X110125463Y-90104494D01*
X110204815Y-90201185D01*
X110301506Y-90280537D01*
X110411820Y-90339502D01*
X110480687Y-90360393D01*
X110450866Y-90384866D01*
X110265294Y-90610986D01*
X110127401Y-90868966D01*
X110042487Y-91148889D01*
X110013815Y-91440000D01*
X110042487Y-91731111D01*
X110127401Y-92011034D01*
X110265294Y-92269014D01*
X110450866Y-92495134D01*
X110676986Y-92680706D01*
X110731791Y-92710000D01*
X110676986Y-92739294D01*
X110450866Y-92924866D01*
X110265294Y-93150986D01*
X110127401Y-93408966D01*
X110042487Y-93688889D01*
X110013815Y-93980000D01*
X110042487Y-94271111D01*
X110127401Y-94551034D01*
X110265294Y-94809014D01*
X110450866Y-95035134D01*
X110676986Y-95220706D01*
X110741523Y-95255201D01*
X110624645Y-95324822D01*
X110408412Y-95519731D01*
X110234359Y-95753080D01*
X110109175Y-96015901D01*
X110064524Y-96163110D01*
X110185845Y-96393000D01*
X111379000Y-96393000D01*
X111379000Y-96373000D01*
X111633000Y-96373000D01*
X111633000Y-96393000D01*
X111653000Y-96393000D01*
X111653000Y-96647000D01*
X111633000Y-96647000D01*
X111633000Y-96667000D01*
X111379000Y-96667000D01*
X111379000Y-96647000D01*
X110185845Y-96647000D01*
X110064524Y-96876890D01*
X110109175Y-97024099D01*
X110234359Y-97286920D01*
X110408412Y-97520269D01*
X110539023Y-97638000D01*
X105833377Y-97638000D01*
X105963988Y-97520269D01*
X106138041Y-97286920D01*
X106263225Y-97024099D01*
X106307876Y-96876890D01*
X106186555Y-96647000D01*
X104993400Y-96647000D01*
X104993400Y-96667000D01*
X104739400Y-96667000D01*
X104739400Y-96647000D01*
X104719400Y-96647000D01*
X104719400Y-96393000D01*
X104739400Y-96393000D01*
X104739400Y-96373000D01*
X104993400Y-96373000D01*
X104993400Y-96393000D01*
X106186555Y-96393000D01*
X106307876Y-96163110D01*
X106263225Y-96015901D01*
X106138041Y-95753080D01*
X105963988Y-95519731D01*
X105747755Y-95324822D01*
X105630877Y-95255201D01*
X105695414Y-95220706D01*
X105921534Y-95035134D01*
X106107106Y-94809014D01*
X106244999Y-94551034D01*
X106329913Y-94271111D01*
X106358585Y-93980000D01*
X106329913Y-93688889D01*
X106244999Y-93408966D01*
X106107106Y-93150986D01*
X105921534Y-92924866D01*
X105891713Y-92900393D01*
X105960580Y-92879502D01*
X106070894Y-92820537D01*
X106167585Y-92741185D01*
X106246937Y-92644494D01*
X106305902Y-92534180D01*
X106342212Y-92414482D01*
X106354472Y-92290000D01*
X106354472Y-90590000D01*
X106342212Y-90465518D01*
X106305902Y-90345820D01*
X106246937Y-90235506D01*
X106167585Y-90138815D01*
X106070894Y-90059463D01*
X105960580Y-90000498D01*
X105840882Y-89964188D01*
X105716400Y-89951928D01*
X104016400Y-89951928D01*
X103891918Y-89964188D01*
X103784000Y-89996925D01*
X103784000Y-87782000D01*
X110079230Y-87782000D01*
X110066498Y-87805820D01*
X110066498Y-87805820D01*
G37*
X110066498Y-87805820D02*
X110030188Y-87925518D01*
X110017928Y-88050000D01*
X110017928Y-89750000D01*
X110030188Y-89874482D01*
X110066498Y-89994180D01*
X110125463Y-90104494D01*
X110204815Y-90201185D01*
X110301506Y-90280537D01*
X110411820Y-90339502D01*
X110480687Y-90360393D01*
X110450866Y-90384866D01*
X110265294Y-90610986D01*
X110127401Y-90868966D01*
X110042487Y-91148889D01*
X110013815Y-91440000D01*
X110042487Y-91731111D01*
X110127401Y-92011034D01*
X110265294Y-92269014D01*
X110450866Y-92495134D01*
X110676986Y-92680706D01*
X110731791Y-92710000D01*
X110676986Y-92739294D01*
X110450866Y-92924866D01*
X110265294Y-93150986D01*
X110127401Y-93408966D01*
X110042487Y-93688889D01*
X110013815Y-93980000D01*
X110042487Y-94271111D01*
X110127401Y-94551034D01*
X110265294Y-94809014D01*
X110450866Y-95035134D01*
X110676986Y-95220706D01*
X110741523Y-95255201D01*
X110624645Y-95324822D01*
X110408412Y-95519731D01*
X110234359Y-95753080D01*
X110109175Y-96015901D01*
X110064524Y-96163110D01*
X110185845Y-96393000D01*
X111379000Y-96393000D01*
X111379000Y-96373000D01*
X111633000Y-96373000D01*
X111633000Y-96393000D01*
X111653000Y-96393000D01*
X111653000Y-96647000D01*
X111633000Y-96647000D01*
X111633000Y-96667000D01*
X111379000Y-96667000D01*
X111379000Y-96647000D01*
X110185845Y-96647000D01*
X110064524Y-96876890D01*
X110109175Y-97024099D01*
X110234359Y-97286920D01*
X110408412Y-97520269D01*
X110539023Y-97638000D01*
X105833377Y-97638000D01*
X105963988Y-97520269D01*
X106138041Y-97286920D01*
X106263225Y-97024099D01*
X106307876Y-96876890D01*
X106186555Y-96647000D01*
X104993400Y-96647000D01*
X104993400Y-96667000D01*
X104739400Y-96667000D01*
X104739400Y-96647000D01*
X104719400Y-96647000D01*
X104719400Y-96393000D01*
X104739400Y-96393000D01*
X104739400Y-96373000D01*
X104993400Y-96373000D01*
X104993400Y-96393000D01*
X106186555Y-96393000D01*
X106307876Y-96163110D01*
X106263225Y-96015901D01*
X106138041Y-95753080D01*
X105963988Y-95519731D01*
X105747755Y-95324822D01*
X105630877Y-95255201D01*
X105695414Y-95220706D01*
X105921534Y-95035134D01*
X106107106Y-94809014D01*
X106244999Y-94551034D01*
X106329913Y-94271111D01*
X106358585Y-93980000D01*
X106329913Y-93688889D01*
X106244999Y-93408966D01*
X106107106Y-93150986D01*
X105921534Y-92924866D01*
X105891713Y-92900393D01*
X105960580Y-92879502D01*
X106070894Y-92820537D01*
X106167585Y-92741185D01*
X106246937Y-92644494D01*
X106305902Y-92534180D01*
X106342212Y-92414482D01*
X106354472Y-92290000D01*
X106354472Y-90590000D01*
X106342212Y-90465518D01*
X106305902Y-90345820D01*
X106246937Y-90235506D01*
X106167585Y-90138815D01*
X106070894Y-90059463D01*
X105960580Y-90000498D01*
X105840882Y-89964188D01*
X105716400Y-89951928D01*
X104016400Y-89951928D01*
X103891918Y-89964188D01*
X103784000Y-89996925D01*
X103784000Y-87782000D01*
X110079230Y-87782000D01*
X110066498Y-87805820D01*
M02*
