G04 #@! TF.GenerationSoftware,KiCad,Pcbnew,(5.1.4)-1*
G04 #@! TF.CreationDate,2019-10-10T13:05:57-05:00*
G04 #@! TF.ProjectId,NC7WZ17 Breakout,4e433757-5a31-4372-9042-7265616b6f75,rev?*
G04 #@! TF.SameCoordinates,Original*
G04 #@! TF.FileFunction,Legend,Top*
G04 #@! TF.FilePolarity,Positive*
%FSLAX46Y46*%
G04 Gerber Fmt 4.6, Leading zero omitted, Abs format (unit mm)*
G04 Created by KiCad (PCBNEW (5.1.4)-1) date 2019-10-10 13:05:57*
%MOMM*%
%LPD*%
G04 APERTURE LIST*
%ADD10C,0.150000*%
%ADD11C,0.010000*%
%ADD12C,0.100000*%
%ADD13C,0.120000*%
G04 APERTURE END LIST*
D10*
X109090666Y-97695333D02*
X109090666Y-97562000D01*
X109124000Y-97495333D01*
X109190666Y-97428666D01*
X109324000Y-97395333D01*
X109557333Y-97395333D01*
X109690666Y-97428666D01*
X109757333Y-97495333D01*
X109790666Y-97562000D01*
X109790666Y-97695333D01*
X109757333Y-97762000D01*
X109690666Y-97828666D01*
X109557333Y-97862000D01*
X109324000Y-97862000D01*
X109190666Y-97828666D01*
X109124000Y-97762000D01*
X109090666Y-97695333D01*
X109090666Y-97095333D02*
X109657333Y-97095333D01*
X109724000Y-97062000D01*
X109757333Y-97028666D01*
X109790666Y-96962000D01*
X109790666Y-96828666D01*
X109757333Y-96762000D01*
X109724000Y-96728666D01*
X109657333Y-96695333D01*
X109090666Y-96695333D01*
X109090666Y-96462000D02*
X109090666Y-96062000D01*
X109790666Y-96262000D02*
X109090666Y-96262000D01*
X109790666Y-95828666D02*
X109090666Y-95828666D01*
X109090666Y-95562000D01*
X109124000Y-95495333D01*
X109157333Y-95462000D01*
X109224000Y-95428666D01*
X109324000Y-95428666D01*
X109390666Y-95462000D01*
X109424000Y-95495333D01*
X109457333Y-95562000D01*
X109457333Y-95828666D01*
X109090666Y-95128666D02*
X109657333Y-95128666D01*
X109724000Y-95095333D01*
X109757333Y-95062000D01*
X109790666Y-94995333D01*
X109790666Y-94862000D01*
X109757333Y-94795333D01*
X109724000Y-94762000D01*
X109657333Y-94728666D01*
X109090666Y-94728666D01*
X109090666Y-94495333D02*
X109090666Y-94095333D01*
X109790666Y-94295333D02*
X109090666Y-94295333D01*
X106617333Y-95170000D02*
X107317333Y-95170000D01*
X106617333Y-95503333D02*
X107317333Y-95503333D01*
X106617333Y-95903333D01*
X107317333Y-95903333D01*
X106617333Y-96236666D02*
X107317333Y-96236666D01*
X107317333Y-96503333D01*
X107284000Y-96570000D01*
X107250666Y-96603333D01*
X107184000Y-96636666D01*
X107084000Y-96636666D01*
X107017333Y-96603333D01*
X106984000Y-96570000D01*
X106950666Y-96503333D01*
X106950666Y-96236666D01*
X107317333Y-96936666D02*
X106750666Y-96936666D01*
X106684000Y-96970000D01*
X106650666Y-97003333D01*
X106617333Y-97070000D01*
X106617333Y-97203333D01*
X106650666Y-97270000D01*
X106684000Y-97303333D01*
X106750666Y-97336666D01*
X107317333Y-97336666D01*
X107317333Y-97570000D02*
X107317333Y-97970000D01*
X106617333Y-97770000D02*
X107317333Y-97770000D01*
D11*
G36*
X106063102Y-87470432D02*
G01*
X106136446Y-87470689D01*
X106204050Y-87471099D01*
X106264657Y-87471645D01*
X106317010Y-87472311D01*
X106359852Y-87473082D01*
X106391926Y-87473941D01*
X106411974Y-87474872D01*
X106418743Y-87475840D01*
X106413787Y-87482074D01*
X106399698Y-87497330D01*
X106377642Y-87520406D01*
X106348787Y-87550099D01*
X106314302Y-87585208D01*
X106275353Y-87624528D01*
X106239076Y-87660897D01*
X106059408Y-87840457D01*
X105555143Y-87840457D01*
X105555143Y-88014628D01*
X106055886Y-88014628D01*
X106055886Y-88362971D01*
X105555143Y-88362971D01*
X105555143Y-88537143D01*
X106055886Y-88537143D01*
X106055886Y-88892743D01*
X105156000Y-88892743D01*
X105156000Y-87866151D01*
X105353905Y-87668247D01*
X105551809Y-87470343D01*
X105985276Y-87470343D01*
X106063102Y-87470432D01*
X106063102Y-87470432D01*
G37*
X106063102Y-87470432D02*
X106136446Y-87470689D01*
X106204050Y-87471099D01*
X106264657Y-87471645D01*
X106317010Y-87472311D01*
X106359852Y-87473082D01*
X106391926Y-87473941D01*
X106411974Y-87474872D01*
X106418743Y-87475840D01*
X106413787Y-87482074D01*
X106399698Y-87497330D01*
X106377642Y-87520406D01*
X106348787Y-87550099D01*
X106314302Y-87585208D01*
X106275353Y-87624528D01*
X106239076Y-87660897D01*
X106059408Y-87840457D01*
X105555143Y-87840457D01*
X105555143Y-88014628D01*
X106055886Y-88014628D01*
X106055886Y-88362971D01*
X105555143Y-88362971D01*
X105555143Y-88537143D01*
X106055886Y-88537143D01*
X106055886Y-88892743D01*
X105156000Y-88892743D01*
X105156000Y-87866151D01*
X105353905Y-87668247D01*
X105551809Y-87470343D01*
X105985276Y-87470343D01*
X106063102Y-87470432D01*
G36*
X105064284Y-87484693D02*
G01*
X105065014Y-87505316D01*
X105065704Y-87538486D01*
X105066348Y-87583218D01*
X105066936Y-87638529D01*
X105067463Y-87703434D01*
X105067920Y-87776949D01*
X105068300Y-87858091D01*
X105068595Y-87945875D01*
X105068799Y-88039318D01*
X105068902Y-88137436D01*
X105068915Y-88185171D01*
X105068915Y-88892743D01*
X104677029Y-88892743D01*
X104677029Y-87858497D01*
X104867579Y-87668048D01*
X104910869Y-87624922D01*
X104950996Y-87585216D01*
X104986796Y-87550062D01*
X105017103Y-87520593D01*
X105040751Y-87497942D01*
X105056576Y-87483241D01*
X105063413Y-87477623D01*
X105063522Y-87477600D01*
X105064284Y-87484693D01*
X105064284Y-87484693D01*
G37*
X105064284Y-87484693D02*
X105065014Y-87505316D01*
X105065704Y-87538486D01*
X105066348Y-87583218D01*
X105066936Y-87638529D01*
X105067463Y-87703434D01*
X105067920Y-87776949D01*
X105068300Y-87858091D01*
X105068595Y-87945875D01*
X105068799Y-88039318D01*
X105068902Y-88137436D01*
X105068915Y-88185171D01*
X105068915Y-88892743D01*
X104677029Y-88892743D01*
X104677029Y-87858497D01*
X104867579Y-87668048D01*
X104910869Y-87624922D01*
X104950996Y-87585216D01*
X104986796Y-87550062D01*
X105017103Y-87520593D01*
X105040751Y-87497942D01*
X105056576Y-87483241D01*
X105063413Y-87477623D01*
X105063522Y-87477600D01*
X105064284Y-87484693D01*
G36*
X104499941Y-87471601D02*
G01*
X104554704Y-87471839D01*
X104951264Y-87473971D01*
X104772470Y-87655400D01*
X104593675Y-87836828D01*
X104328738Y-87840719D01*
X104259706Y-87841753D01*
X104203542Y-87842701D01*
X104158602Y-87843682D01*
X104123241Y-87844814D01*
X104095816Y-87846213D01*
X104074680Y-87848000D01*
X104058191Y-87850291D01*
X104044703Y-87853205D01*
X104032571Y-87856859D01*
X104020153Y-87861373D01*
X104015332Y-87863216D01*
X103947607Y-87895814D01*
X103889260Y-87937364D01*
X103841112Y-87986580D01*
X103803986Y-88042176D01*
X103778703Y-88102866D01*
X103766085Y-88167365D01*
X103766956Y-88234386D01*
X103768926Y-88248643D01*
X103785749Y-88313650D01*
X103813708Y-88373404D01*
X103851274Y-88426213D01*
X103896918Y-88470383D01*
X103949109Y-88504225D01*
X104006318Y-88526045D01*
X104023062Y-88529776D01*
X104046512Y-88532778D01*
X104079662Y-88535190D01*
X104117705Y-88536730D01*
X104148248Y-88537143D01*
X104234343Y-88537143D01*
X104234343Y-88014628D01*
X104589943Y-88014628D01*
X104589943Y-88900000D01*
X104334129Y-88898923D01*
X104270827Y-88898515D01*
X104208888Y-88897850D01*
X104150630Y-88896974D01*
X104098369Y-88895930D01*
X104054420Y-88894763D01*
X104021101Y-88893517D01*
X104005743Y-88892650D01*
X103909696Y-88878765D01*
X103818730Y-88851601D01*
X103733752Y-88811785D01*
X103655670Y-88759938D01*
X103585393Y-88696686D01*
X103523829Y-88622651D01*
X103471884Y-88538459D01*
X103462015Y-88519000D01*
X103437569Y-88466118D01*
X103419751Y-88419605D01*
X103406913Y-88373906D01*
X103397404Y-88323467D01*
X103391939Y-88283143D01*
X103387053Y-88183457D01*
X103396301Y-88084818D01*
X103419339Y-87988724D01*
X103455829Y-87896674D01*
X103496504Y-87823761D01*
X103513030Y-87800660D01*
X103536248Y-87771723D01*
X103562547Y-87741336D01*
X103579267Y-87723218D01*
X103658879Y-87648548D01*
X103742944Y-87587557D01*
X103832149Y-87539904D01*
X103927180Y-87505250D01*
X104028725Y-87483256D01*
X104076998Y-87477373D01*
X104103488Y-87475667D01*
X104143290Y-87474232D01*
X104195202Y-87473082D01*
X104258024Y-87472229D01*
X104330555Y-87471689D01*
X104411594Y-87471475D01*
X104499941Y-87471601D01*
X104499941Y-87471601D01*
G37*
X104499941Y-87471601D02*
X104554704Y-87471839D01*
X104951264Y-87473971D01*
X104772470Y-87655400D01*
X104593675Y-87836828D01*
X104328738Y-87840719D01*
X104259706Y-87841753D01*
X104203542Y-87842701D01*
X104158602Y-87843682D01*
X104123241Y-87844814D01*
X104095816Y-87846213D01*
X104074680Y-87848000D01*
X104058191Y-87850291D01*
X104044703Y-87853205D01*
X104032571Y-87856859D01*
X104020153Y-87861373D01*
X104015332Y-87863216D01*
X103947607Y-87895814D01*
X103889260Y-87937364D01*
X103841112Y-87986580D01*
X103803986Y-88042176D01*
X103778703Y-88102866D01*
X103766085Y-88167365D01*
X103766956Y-88234386D01*
X103768926Y-88248643D01*
X103785749Y-88313650D01*
X103813708Y-88373404D01*
X103851274Y-88426213D01*
X103896918Y-88470383D01*
X103949109Y-88504225D01*
X104006318Y-88526045D01*
X104023062Y-88529776D01*
X104046512Y-88532778D01*
X104079662Y-88535190D01*
X104117705Y-88536730D01*
X104148248Y-88537143D01*
X104234343Y-88537143D01*
X104234343Y-88014628D01*
X104589943Y-88014628D01*
X104589943Y-88900000D01*
X104334129Y-88898923D01*
X104270827Y-88898515D01*
X104208888Y-88897850D01*
X104150630Y-88896974D01*
X104098369Y-88895930D01*
X104054420Y-88894763D01*
X104021101Y-88893517D01*
X104005743Y-88892650D01*
X103909696Y-88878765D01*
X103818730Y-88851601D01*
X103733752Y-88811785D01*
X103655670Y-88759938D01*
X103585393Y-88696686D01*
X103523829Y-88622651D01*
X103471884Y-88538459D01*
X103462015Y-88519000D01*
X103437569Y-88466118D01*
X103419751Y-88419605D01*
X103406913Y-88373906D01*
X103397404Y-88323467D01*
X103391939Y-88283143D01*
X103387053Y-88183457D01*
X103396301Y-88084818D01*
X103419339Y-87988724D01*
X103455829Y-87896674D01*
X103496504Y-87823761D01*
X103513030Y-87800660D01*
X103536248Y-87771723D01*
X103562547Y-87741336D01*
X103579267Y-87723218D01*
X103658879Y-87648548D01*
X103742944Y-87587557D01*
X103832149Y-87539904D01*
X103927180Y-87505250D01*
X104028725Y-87483256D01*
X104076998Y-87477373D01*
X104103488Y-87475667D01*
X104143290Y-87474232D01*
X104195202Y-87473082D01*
X104258024Y-87472229D01*
X104330555Y-87471689D01*
X104411594Y-87471475D01*
X104499941Y-87471601D01*
G36*
X105962620Y-88958107D02*
G01*
X105970837Y-88958939D01*
X105979422Y-88961577D01*
X105989841Y-88967043D01*
X106003556Y-88976362D01*
X106022032Y-88990556D01*
X106046733Y-89010649D01*
X106079122Y-89037663D01*
X106120664Y-89072623D01*
X106137462Y-89086778D01*
X106171951Y-89115694D01*
X106202623Y-89141134D01*
X106227776Y-89161710D01*
X106245708Y-89176033D01*
X106254719Y-89182714D01*
X106255390Y-89183028D01*
X106256657Y-89176183D01*
X106257736Y-89157291D01*
X106258548Y-89128821D01*
X106259010Y-89093240D01*
X106259086Y-89070543D01*
X106259086Y-88958057D01*
X106331658Y-88958057D01*
X106331658Y-89306400D01*
X106304443Y-89306361D01*
X106280488Y-89302857D01*
X106259210Y-89294400D01*
X106258045Y-89293661D01*
X106245708Y-89284486D01*
X106225045Y-89268014D01*
X106198224Y-89246076D01*
X106167416Y-89220502D01*
X106134788Y-89193120D01*
X106102511Y-89165761D01*
X106072753Y-89140254D01*
X106047684Y-89118428D01*
X106029472Y-89102114D01*
X106020286Y-89093140D01*
X106020228Y-89093071D01*
X106009593Y-89083537D01*
X106004197Y-89081428D01*
X106002015Y-89088274D01*
X106000155Y-89107164D01*
X105998757Y-89135633D01*
X105997960Y-89171213D01*
X105997829Y-89193914D01*
X105997829Y-89306400D01*
X105925258Y-89306400D01*
X105925258Y-88958057D01*
X105953307Y-88958057D01*
X105962620Y-88958107D01*
X105962620Y-88958107D01*
G37*
X105962620Y-88958107D02*
X105970837Y-88958939D01*
X105979422Y-88961577D01*
X105989841Y-88967043D01*
X106003556Y-88976362D01*
X106022032Y-88990556D01*
X106046733Y-89010649D01*
X106079122Y-89037663D01*
X106120664Y-89072623D01*
X106137462Y-89086778D01*
X106171951Y-89115694D01*
X106202623Y-89141134D01*
X106227776Y-89161710D01*
X106245708Y-89176033D01*
X106254719Y-89182714D01*
X106255390Y-89183028D01*
X106256657Y-89176183D01*
X106257736Y-89157291D01*
X106258548Y-89128821D01*
X106259010Y-89093240D01*
X106259086Y-89070543D01*
X106259086Y-88958057D01*
X106331658Y-88958057D01*
X106331658Y-89306400D01*
X106304443Y-89306361D01*
X106280488Y-89302857D01*
X106259210Y-89294400D01*
X106258045Y-89293661D01*
X106245708Y-89284486D01*
X106225045Y-89268014D01*
X106198224Y-89246076D01*
X106167416Y-89220502D01*
X106134788Y-89193120D01*
X106102511Y-89165761D01*
X106072753Y-89140254D01*
X106047684Y-89118428D01*
X106029472Y-89102114D01*
X106020286Y-89093140D01*
X106020228Y-89093071D01*
X106009593Y-89083537D01*
X106004197Y-89081428D01*
X106002015Y-89088274D01*
X106000155Y-89107164D01*
X105998757Y-89135633D01*
X105997960Y-89171213D01*
X105997829Y-89193914D01*
X105997829Y-89306400D01*
X105925258Y-89306400D01*
X105925258Y-88958057D01*
X105953307Y-88958057D01*
X105962620Y-88958107D01*
G36*
X105596912Y-88958249D02*
G01*
X105640453Y-88958788D01*
X105677294Y-88959616D01*
X105705195Y-88960676D01*
X105721919Y-88961911D01*
X105725361Y-88962565D01*
X105738511Y-88973283D01*
X105749292Y-88991702D01*
X105756308Y-89013189D01*
X105758166Y-89033110D01*
X105753473Y-89046834D01*
X105751259Y-89048664D01*
X105740372Y-89052003D01*
X105720532Y-89055631D01*
X105707716Y-89057361D01*
X105686186Y-89059387D01*
X105675364Y-89058067D01*
X105671619Y-89052284D01*
X105671258Y-89046153D01*
X105670787Y-89040501D01*
X105668022Y-89036420D01*
X105660931Y-89033654D01*
X105647482Y-89031947D01*
X105625644Y-89031044D01*
X105593386Y-89030690D01*
X105548675Y-89030628D01*
X105424515Y-89030628D01*
X105424515Y-89233828D01*
X105671258Y-89233828D01*
X105671258Y-89169079D01*
X105544258Y-89164885D01*
X105542016Y-89133846D01*
X105539775Y-89102807D01*
X105647245Y-89104817D01*
X105754715Y-89106828D01*
X105754105Y-89193235D01*
X105754017Y-89226553D01*
X105753222Y-89252617D01*
X105750133Y-89272315D01*
X105743163Y-89286532D01*
X105730727Y-89296156D01*
X105711237Y-89302075D01*
X105683108Y-89305174D01*
X105644753Y-89306340D01*
X105594586Y-89306462D01*
X105551689Y-89306400D01*
X105497535Y-89306322D01*
X105455965Y-89305992D01*
X105425051Y-89305264D01*
X105402864Y-89303990D01*
X105387476Y-89302026D01*
X105376956Y-89299225D01*
X105369377Y-89295442D01*
X105364948Y-89292256D01*
X105358301Y-89286468D01*
X105353415Y-89279616D01*
X105349897Y-89269395D01*
X105347356Y-89253500D01*
X105345398Y-89229626D01*
X105343632Y-89195468D01*
X105342027Y-89157593D01*
X105340385Y-89102028D01*
X105340419Y-89057514D01*
X105342108Y-89025245D01*
X105344724Y-89008717D01*
X105349320Y-88993430D01*
X105355045Y-88981574D01*
X105363654Y-88972713D01*
X105376902Y-88966412D01*
X105396545Y-88962235D01*
X105424340Y-88959748D01*
X105462041Y-88958513D01*
X105511405Y-88958096D01*
X105548907Y-88958057D01*
X105596912Y-88958249D01*
X105596912Y-88958249D01*
G37*
X105596912Y-88958249D02*
X105640453Y-88958788D01*
X105677294Y-88959616D01*
X105705195Y-88960676D01*
X105721919Y-88961911D01*
X105725361Y-88962565D01*
X105738511Y-88973283D01*
X105749292Y-88991702D01*
X105756308Y-89013189D01*
X105758166Y-89033110D01*
X105753473Y-89046834D01*
X105751259Y-89048664D01*
X105740372Y-89052003D01*
X105720532Y-89055631D01*
X105707716Y-89057361D01*
X105686186Y-89059387D01*
X105675364Y-89058067D01*
X105671619Y-89052284D01*
X105671258Y-89046153D01*
X105670787Y-89040501D01*
X105668022Y-89036420D01*
X105660931Y-89033654D01*
X105647482Y-89031947D01*
X105625644Y-89031044D01*
X105593386Y-89030690D01*
X105548675Y-89030628D01*
X105424515Y-89030628D01*
X105424515Y-89233828D01*
X105671258Y-89233828D01*
X105671258Y-89169079D01*
X105544258Y-89164885D01*
X105542016Y-89133846D01*
X105539775Y-89102807D01*
X105647245Y-89104817D01*
X105754715Y-89106828D01*
X105754105Y-89193235D01*
X105754017Y-89226553D01*
X105753222Y-89252617D01*
X105750133Y-89272315D01*
X105743163Y-89286532D01*
X105730727Y-89296156D01*
X105711237Y-89302075D01*
X105683108Y-89305174D01*
X105644753Y-89306340D01*
X105594586Y-89306462D01*
X105551689Y-89306400D01*
X105497535Y-89306322D01*
X105455965Y-89305992D01*
X105425051Y-89305264D01*
X105402864Y-89303990D01*
X105387476Y-89302026D01*
X105376956Y-89299225D01*
X105369377Y-89295442D01*
X105364948Y-89292256D01*
X105358301Y-89286468D01*
X105353415Y-89279616D01*
X105349897Y-89269395D01*
X105347356Y-89253500D01*
X105345398Y-89229626D01*
X105343632Y-89195468D01*
X105342027Y-89157593D01*
X105340385Y-89102028D01*
X105340419Y-89057514D01*
X105342108Y-89025245D01*
X105344724Y-89008717D01*
X105349320Y-88993430D01*
X105355045Y-88981574D01*
X105363654Y-88972713D01*
X105376902Y-88966412D01*
X105396545Y-88962235D01*
X105424340Y-88959748D01*
X105462041Y-88958513D01*
X105511405Y-88958096D01*
X105548907Y-88958057D01*
X105596912Y-88958249D01*
G36*
X105177772Y-89306400D02*
G01*
X105090686Y-89306400D01*
X105090686Y-88958057D01*
X105177772Y-88958057D01*
X105177772Y-89306400D01*
X105177772Y-89306400D01*
G37*
X105177772Y-89306400D02*
X105090686Y-89306400D01*
X105090686Y-88958057D01*
X105177772Y-88958057D01*
X105177772Y-89306400D01*
G36*
X104788851Y-88958096D02*
G01*
X104826540Y-88958361D01*
X104853852Y-88959072D01*
X104872853Y-88960448D01*
X104885611Y-88962711D01*
X104894195Y-88966081D01*
X104900672Y-88970777D01*
X104905959Y-88975870D01*
X104921044Y-89000052D01*
X104923772Y-89018984D01*
X104923044Y-89035877D01*
X104918572Y-89045555D01*
X104906921Y-89051050D01*
X104884657Y-89055395D01*
X104882043Y-89055829D01*
X104862811Y-89058430D01*
X104853888Y-89056559D01*
X104851328Y-89048466D01*
X104851200Y-89042152D01*
X104851200Y-89023371D01*
X104633486Y-89023371D01*
X104633486Y-89087276D01*
X104896012Y-89092314D01*
X104914164Y-89113424D01*
X104922466Y-89124012D01*
X104927610Y-89134676D01*
X104930188Y-89148921D01*
X104930791Y-89170255D01*
X104930008Y-89202182D01*
X104929859Y-89206605D01*
X104928847Y-89236559D01*
X104927001Y-89259836D01*
X104922671Y-89277277D01*
X104914209Y-89289720D01*
X104899963Y-89298008D01*
X104878283Y-89302981D01*
X104847521Y-89305478D01*
X104806027Y-89306340D01*
X104752149Y-89306408D01*
X104733952Y-89306400D01*
X104574769Y-89306400D01*
X104556956Y-89288587D01*
X104543196Y-89268260D01*
X104539143Y-89241837D01*
X104539143Y-89241756D01*
X104540258Y-89222732D01*
X104546267Y-89212823D01*
X104561165Y-89206658D01*
X104566358Y-89205181D01*
X104590816Y-89199231D01*
X104604570Y-89198932D01*
X104610552Y-89204963D01*
X104611715Y-89215685D01*
X104611715Y-89233828D01*
X104851200Y-89233828D01*
X104851200Y-89168514D01*
X104744158Y-89168341D01*
X104686612Y-89167785D01*
X104641948Y-89165704D01*
X104608545Y-89161163D01*
X104584781Y-89153228D01*
X104569037Y-89140964D01*
X104559690Y-89123437D01*
X104555121Y-89099713D01*
X104553708Y-89068857D01*
X104553658Y-89058523D01*
X104554007Y-89026865D01*
X104555584Y-89006040D01*
X104559180Y-88992375D01*
X104565587Y-88982195D01*
X104571470Y-88975870D01*
X104577772Y-88969898D01*
X104584455Y-88965437D01*
X104593588Y-88962266D01*
X104607238Y-88960165D01*
X104627472Y-88958914D01*
X104656360Y-88958292D01*
X104695969Y-88958080D01*
X104738715Y-88958057D01*
X104788851Y-88958096D01*
X104788851Y-88958096D01*
G37*
X104788851Y-88958096D02*
X104826540Y-88958361D01*
X104853852Y-88959072D01*
X104872853Y-88960448D01*
X104885611Y-88962711D01*
X104894195Y-88966081D01*
X104900672Y-88970777D01*
X104905959Y-88975870D01*
X104921044Y-89000052D01*
X104923772Y-89018984D01*
X104923044Y-89035877D01*
X104918572Y-89045555D01*
X104906921Y-89051050D01*
X104884657Y-89055395D01*
X104882043Y-89055829D01*
X104862811Y-89058430D01*
X104853888Y-89056559D01*
X104851328Y-89048466D01*
X104851200Y-89042152D01*
X104851200Y-89023371D01*
X104633486Y-89023371D01*
X104633486Y-89087276D01*
X104896012Y-89092314D01*
X104914164Y-89113424D01*
X104922466Y-89124012D01*
X104927610Y-89134676D01*
X104930188Y-89148921D01*
X104930791Y-89170255D01*
X104930008Y-89202182D01*
X104929859Y-89206605D01*
X104928847Y-89236559D01*
X104927001Y-89259836D01*
X104922671Y-89277277D01*
X104914209Y-89289720D01*
X104899963Y-89298008D01*
X104878283Y-89302981D01*
X104847521Y-89305478D01*
X104806027Y-89306340D01*
X104752149Y-89306408D01*
X104733952Y-89306400D01*
X104574769Y-89306400D01*
X104556956Y-89288587D01*
X104543196Y-89268260D01*
X104539143Y-89241837D01*
X104539143Y-89241756D01*
X104540258Y-89222732D01*
X104546267Y-89212823D01*
X104561165Y-89206658D01*
X104566358Y-89205181D01*
X104590816Y-89199231D01*
X104604570Y-89198932D01*
X104610552Y-89204963D01*
X104611715Y-89215685D01*
X104611715Y-89233828D01*
X104851200Y-89233828D01*
X104851200Y-89168514D01*
X104744158Y-89168341D01*
X104686612Y-89167785D01*
X104641948Y-89165704D01*
X104608545Y-89161163D01*
X104584781Y-89153228D01*
X104569037Y-89140964D01*
X104559690Y-89123437D01*
X104555121Y-89099713D01*
X104553708Y-89068857D01*
X104553658Y-89058523D01*
X104554007Y-89026865D01*
X104555584Y-89006040D01*
X104559180Y-88992375D01*
X104565587Y-88982195D01*
X104571470Y-88975870D01*
X104577772Y-88969898D01*
X104584455Y-88965437D01*
X104593588Y-88962266D01*
X104607238Y-88960165D01*
X104627472Y-88958914D01*
X104656360Y-88958292D01*
X104695969Y-88958080D01*
X104738715Y-88958057D01*
X104788851Y-88958096D01*
G36*
X104401258Y-89023371D02*
G01*
X104132743Y-89023371D01*
X104132743Y-89088194D01*
X104210758Y-89090254D01*
X104288772Y-89092314D01*
X104288772Y-89157628D01*
X104210758Y-89159688D01*
X104132743Y-89161748D01*
X104132743Y-89233508D01*
X104268815Y-89235482D01*
X104404886Y-89237457D01*
X104407098Y-89271928D01*
X104409310Y-89306400D01*
X104045658Y-89306400D01*
X104045658Y-88958057D01*
X104401258Y-88958057D01*
X104401258Y-89023371D01*
X104401258Y-89023371D01*
G37*
X104401258Y-89023371D02*
X104132743Y-89023371D01*
X104132743Y-89088194D01*
X104210758Y-89090254D01*
X104288772Y-89092314D01*
X104288772Y-89157628D01*
X104210758Y-89159688D01*
X104132743Y-89161748D01*
X104132743Y-89233508D01*
X104268815Y-89235482D01*
X104404886Y-89237457D01*
X104407098Y-89271928D01*
X104409310Y-89306400D01*
X104045658Y-89306400D01*
X104045658Y-88958057D01*
X104401258Y-88958057D01*
X104401258Y-89023371D01*
G36*
X103633815Y-88959355D02*
G01*
X103685649Y-88960240D01*
X103725160Y-88961265D01*
X103754539Y-88962642D01*
X103775977Y-88964589D01*
X103791665Y-88967318D01*
X103803794Y-88971044D01*
X103814556Y-88975983D01*
X103817058Y-88977308D01*
X103854437Y-89003207D01*
X103880129Y-89035219D01*
X103895103Y-89075126D01*
X103900331Y-89124709D01*
X103900355Y-89130181D01*
X103895157Y-89181054D01*
X103879452Y-89223118D01*
X103852718Y-89258088D01*
X103838096Y-89271947D01*
X103824350Y-89282589D01*
X103809306Y-89290480D01*
X103790789Y-89296087D01*
X103766624Y-89299879D01*
X103734636Y-89302321D01*
X103692649Y-89303881D01*
X103638488Y-89305027D01*
X103633815Y-89305111D01*
X103479600Y-89307843D01*
X103479600Y-89235321D01*
X103566686Y-89235321D01*
X103655586Y-89232519D01*
X103699068Y-89230527D01*
X103730652Y-89227486D01*
X103752935Y-89223038D01*
X103767949Y-89217136D01*
X103792442Y-89196306D01*
X103807985Y-89166872D01*
X103813746Y-89132262D01*
X103808889Y-89095906D01*
X103801918Y-89077507D01*
X103791302Y-89058636D01*
X103778483Y-89045011D01*
X103760963Y-89035706D01*
X103736247Y-89029793D01*
X103701839Y-89026346D01*
X103659215Y-89024550D01*
X103566686Y-89021913D01*
X103566686Y-89235321D01*
X103479600Y-89235321D01*
X103479600Y-88957024D01*
X103633815Y-88959355D01*
X103633815Y-88959355D01*
G37*
X103633815Y-88959355D02*
X103685649Y-88960240D01*
X103725160Y-88961265D01*
X103754539Y-88962642D01*
X103775977Y-88964589D01*
X103791665Y-88967318D01*
X103803794Y-88971044D01*
X103814556Y-88975983D01*
X103817058Y-88977308D01*
X103854437Y-89003207D01*
X103880129Y-89035219D01*
X103895103Y-89075126D01*
X103900331Y-89124709D01*
X103900355Y-89130181D01*
X103895157Y-89181054D01*
X103879452Y-89223118D01*
X103852718Y-89258088D01*
X103838096Y-89271947D01*
X103824350Y-89282589D01*
X103809306Y-89290480D01*
X103790789Y-89296087D01*
X103766624Y-89299879D01*
X103734636Y-89302321D01*
X103692649Y-89303881D01*
X103638488Y-89305027D01*
X103633815Y-89305111D01*
X103479600Y-89307843D01*
X103479600Y-89235321D01*
X103566686Y-89235321D01*
X103655586Y-89232519D01*
X103699068Y-89230527D01*
X103730652Y-89227486D01*
X103752935Y-89223038D01*
X103767949Y-89217136D01*
X103792442Y-89196306D01*
X103807985Y-89166872D01*
X103813746Y-89132262D01*
X103808889Y-89095906D01*
X103801918Y-89077507D01*
X103791302Y-89058636D01*
X103778483Y-89045011D01*
X103760963Y-89035706D01*
X103736247Y-89029793D01*
X103701839Y-89026346D01*
X103659215Y-89024550D01*
X103566686Y-89021913D01*
X103566686Y-89235321D01*
X103479600Y-89235321D01*
X103479600Y-88957024D01*
X103633815Y-88959355D01*
D12*
X109004000Y-92665000D02*
X108779000Y-92665000D01*
X109004000Y-92365000D02*
X109004000Y-92665000D01*
X107404000Y-92665000D02*
X107654000Y-92665000D01*
X107404000Y-92390000D02*
X107404000Y-92665000D01*
X109004000Y-90215000D02*
X108704000Y-90215000D01*
X109004000Y-90515000D02*
X109004000Y-90215000D01*
X107404000Y-90515000D02*
X107004000Y-90515000D01*
X107729000Y-90215000D02*
X107404000Y-90515000D01*
D13*
X110176000Y-87570000D02*
X111506000Y-87570000D01*
X110176000Y-88900000D02*
X110176000Y-87570000D01*
X110176000Y-90170000D02*
X112836000Y-90170000D01*
X112836000Y-90170000D02*
X112836000Y-97850000D01*
X110176000Y-90170000D02*
X110176000Y-97850000D01*
X110176000Y-97850000D02*
X112836000Y-97850000D01*
X103536400Y-90110000D02*
X104866400Y-90110000D01*
X103536400Y-91440000D02*
X103536400Y-90110000D01*
X103536400Y-92710000D02*
X106196400Y-92710000D01*
X106196400Y-92710000D02*
X106196400Y-97850000D01*
X103536400Y-92710000D02*
X103536400Y-97850000D01*
X103536400Y-97850000D02*
X106196400Y-97850000D01*
X108366779Y-87628000D02*
X108041221Y-87628000D01*
X108366779Y-88648000D02*
X108041221Y-88648000D01*
D10*
X107670666Y-93088666D02*
X107670666Y-93655333D01*
X107704000Y-93722000D01*
X107737333Y-93755333D01*
X107804000Y-93788666D01*
X107937333Y-93788666D01*
X108004000Y-93755333D01*
X108037333Y-93722000D01*
X108070666Y-93655333D01*
X108070666Y-93088666D01*
X108770666Y-93788666D02*
X108370666Y-93788666D01*
X108570666Y-93788666D02*
X108570666Y-93088666D01*
X108504000Y-93188666D01*
X108437333Y-93255333D01*
X108370666Y-93288666D01*
X108214333Y-89658000D02*
X108181000Y-89691333D01*
X108081000Y-89724666D01*
X108014333Y-89724666D01*
X107914333Y-89691333D01*
X107847666Y-89624666D01*
X107814333Y-89558000D01*
X107781000Y-89424666D01*
X107781000Y-89324666D01*
X107814333Y-89191333D01*
X107847666Y-89124666D01*
X107914333Y-89058000D01*
X108014333Y-89024666D01*
X108081000Y-89024666D01*
X108181000Y-89058000D01*
X108214333Y-89091333D01*
X108881000Y-89724666D02*
X108481000Y-89724666D01*
X108681000Y-89724666D02*
X108681000Y-89024666D01*
X108614333Y-89124666D01*
X108547666Y-89191333D01*
X108481000Y-89224666D01*
M02*
